# xmcd
#
# Track frame offsets: 
#        150
#        10727
#        16778
#        26721
#        35997
#        43481
#
# Disc length: 776 seconds
#
# Revision: 0
# Processed by: cddbd v1.5.2PL0 Copyright (c) Steve Scherf et al.
# Submitted via: ExactAudioCopy v0.90b4
#
DISCID=48030606
DTITLE=Bicasso - Rebl Musiq Sampler
DYEAR=2006
DGENRE=Hip-Hop
TTITLE0=Think Big
TTITLE1=Rebl Musik
TTITLE2=Get Free
TTITLE3=B Work It Out
TTITLE4=Doin' It Movin'
TTITLE5=Amerikan Dream
EXTD=
EXTT0=
EXTT1=
EXTT2=
EXTT3=
EXTT4=
EXTT5=
PLAYORDER=
